<?xml version="1.0" standalone="no"?>
<!DOCTYPE svg PUBLIC "-//W3C//DTD SVG 20010904//EN"
 "http://www.w3.org/TR/2001/REC-SVG-20010904/DTD/svg10.dtd">
<svg version="1.0" xmlns="http://www.w3.org/2000/svg"
 width="256.000000pt" height="256.000000pt" viewBox="0 0 256.000000 256.000000"
 preserveAspectRatio="xMidYMid meet">
<metadata>
Created by potrace 1.14, written by Peter Selinger 2001-2017
</metadata>
<g transform="translate(0.000000,256.000000) scale(0.100000,-0.100000)"
fill="#000000" stroke="none">
<path d="M673 2460 c-34 -20 -62 -57 -68 -87 -2 -10 -4 -44 -4 -75 l-1 -58
-60 0 c-53 0 -60 -2 -60 -20 0 -17 -7 -20 -40 -20 -33 0 -40 3 -40 20 0 19 -7
20 -131 20 l-131 0 -29 -29 -29 -30 2 -826 3 -827 28 -24 c28 -24 29 -24 257
-24 l229 0 3 -154 c3 -138 5 -158 24 -183 48 -65 30 -63 659 -63 545 1 572 1
602 20 34 20 62 57 68 87 2 10 4 80 4 156 l1 137 231 0 231 0 29 29 29 29 0
311 c0 304 0 311 -20 311 -17 0 -20 7 -20 40 0 34 3 40 20 40 20 0 21 4 18
476 l-3 476 -28 24 c-28 24 -30 24 -256 24 l-229 0 -4 74 c-4 85 -22 120 -79
149 -31 16 -80 17 -604 17 -545 -1 -572 -1 -602 -20z"/>
</g>
</svg>
